<svg id="visual" viewBox="0 0 960 540" width="960" height="540" xmlns="http://www.w3.org/2000/svg" xmlns:xlink="http://www.w3.org/1999/xlink" version="1.1"><rect width="960" height="540" fill="#222"></rect><g><g transform="translate(607 71)"><path d="M0 -47.6L41.2 -23.8L41.2 23.8L0 47.6L-41.2 23.8L-41.2 -23.8Z" fill="#333"></path></g><g transform="translate(435 443)"><path d="M0 -28L24.2 -14L24.2 14L0 28L-24.2 14L-24.2 -14Z" fill="#333"></path></g><g transform="translate(883 412)"><path d="M0 -39L33.8 -19.5L33.8 19.5L0 39L-33.8 19.5L-33.8 -19.5Z" fill="#333"></path></g><g transform="translate(94 168)"><path d="M0 -28L24.2 -14L24.2 14L0 28L-24.2 14L-24.2 -14Z" fill="#333"></path></g></g></svg>