<svg id="visual" viewBox="0 0 900 600" width="900" height="600" xmlns="http://www.w3.org/2000/svg" xmlns:xlink="http://www.w3.org/1999/xlink" version="1.1"><rect width="900" height="600" fill="#222"></rect><g><g transform="translate(585 154)"><path d="M0 -48.6L42.1 -24.3L42.1 24.3L0 48.6L-42.1 24.3L-42.1 -24.3Z" fill="#297EA6"></path></g><g transform="translate(485 190)"><path d="M0 -34L29.4 -17L29.4 17L0 34L-29.4 17L-29.4 -17Z" fill="#297EA6"></path></g><g transform="translate(72 405)"><path d="M0 -37L32 -18.5L32 18.5L0 37L-32 18.5L-32 -18.5Z" fill="#297EA6"></path></g><g transform="translate(764 481)"><path d="M0 -38L32.9 -19L32.9 19L0 38L-32.9 19L-32.9 -19Z" fill="#297EA6"></path></g><g transform="translate(132 288)"><path d="M0 -40L34.6 -20L34.6 20L0 40L-34.6 20L-34.6 -20Z" fill="#297EA6"></path></g><g transform="translate(457 310)"><path d="M0 -47L40.7 -23.5L40.7 23.5L0 47L-40.7 23.5L-40.7 -23.5Z" fill="#297EA6"></path></g><g transform="translate(825 365)"><path d="M0 -30L26 -15L26 15L0 30L-26 15L-26 -15Z" fill="#297EA6"></path></g></g></svg>