<svg id="visual" viewBox="0 0 900 600" width="900" height="600" xmlns="http://www.w3.org/2000/svg" xmlns:xlink="http://www.w3.org/1999/xlink" version="1.1"><rect width="900" height="600" fill="#ffffff"></rect><g><g transform="translate(721 49)"><path d="M0 -48.6L42.1 -24.3L42.1 24.3L0 48.6L-42.1 24.3L-42.1 -24.3Z" fill="#cccccc"></path></g><g transform="translate(642 470)"><path d="M0 -27L23.4 -13.5L23.4 13.5L0 27L-23.4 13.5L-23.4 -13.5Z" fill="#cccccc"></path></g><g transform="translate(163 439)"><path d="M0 -34L29.4 -17L29.4 17L0 34L-29.4 17L-29.4 -17Z" fill="#cccccc"></path></g><g transform="translate(295 141)"><path d="M0 -27L23.4 -13.5L23.4 13.5L0 27L-23.4 13.5L-23.4 -13.5Z" fill="#cccccc"></path></g></g></svg>