<svg id="visual" viewBox="0 0 960 540" width="960" height="540" xmlns="http://www.w3.org/2000/svg" xmlns:xlink="http://www.w3.org/1999/xlink" version="1.1"><rect width="960" height="540" fill="#ffffff"></rect><g><g transform="translate(432 437)"><path d="M0 -47.6L41.2 -23.8L41.2 23.8L0 47.6L-41.2 23.8L-41.2 -23.8Z" fill="#ebebeb"></path></g><g transform="translate(788 129)"><path d="M0 -40L34.6 -20L34.6 20L0 40L-34.6 20L-34.6 -20Z" fill="#ebebeb"></path></g><g transform="translate(721 262)"><path d="M0 -30L26 -15L26 15L0 30L-26 15L-26 -15Z" fill="#ebebeb"></path></g><g transform="translate(166 326)"><path d="M0 -25L21.7 -12.5L21.7 12.5L0 25L-21.7 12.5L-21.7 -12.5Z" fill="#ebebeb"></path></g><g transform="translate(623 477)"><path d="M0 -36L31.2 -18L31.2 18L0 36L-31.2 18L-31.2 -18Z" fill="#ebebeb"></path></g><g transform="translate(387 123)"><path d="M0 -40L34.6 -20L34.6 20L0 40L-34.6 20L-34.6 -20Z" fill="#ebebeb"></path></g></g></svg>